# xmcd
#
# Track frame offsets:
#	150
#	15256
#	37471
#	58489
#	77478
#	100702
#	119739
#	136464
#	155118
#	171722
#	188493
#	208239
#	228939
#	249825
#
# Disc length: 3611 seconds
#
# Revision: 0
# Processed by: cddbd v1.5.2PL0 Copyright (c) Steve Scherf et al.
# Submitted via: EasyCDDAExtractor 10.0.2.1
#
DISCID=c70e190e
DTITLE=Eric Benet - Hurricane
DYEAR=2005
DGENRE=Soul
TTITLE0=Be Myself Again
TTITLE1=Pretty Baby
TTITLE2=Hurricane
TTITLE3=Where Does The Love Go
TTITLE4=My Prayer
TTITLE5=Man Enough To Cry
TTITLE6=I Know
TTITLE7=India
TTITLE8=The Last Time
TTITLE9=In The End
TTITLE10=Making Love
TTITLE11=Cracks of My Broken Heart
TTITLE12=I Wanna Be Loved
TTITLE13=Still With You
EXTD=
EXTT0=
EXTT1=
EXTT2=
EXTT3=
EXTT4=
EXTT5=
EXTT6=
EXTT7=
EXTT8=
EXTT9=
EXTT10=
EXTT11=
EXTT12=
EXTT13=
PLAYORDER=
